#!OML:ASF X:\für Bonn\!DataBase\2005_08_12_Daniel\c3d\Daniel.ASF
:FULLY-SPECIFIED
:DEGREES
81
root -3.51694 6.92413 -1.16794 381.667 -87.9139 -415.525
lowerback 54.7257 -3.70322 4.46839
upperback 5.05774 -3.97669 -2.66538
thorax -16.0202 -2.49202 -2.87483
lowerneck 8.24998 2.12056 -1.348
upperneck -3.01417 2.64087 -0.614607
head -2.38821 1.34688 -0.0841984
rclavicle 7.35503e-015 2.3059e-014
rhumerus 84.5366 -20.0587 -193.226
rradius 7.44089
rwrist 156.501
rhand -24.8145 12.949
rfingers 7.12502
rthumb 1.69077 -17.0241
lclavicle 7.35503e-015 2.3059e-014
lhumerus 61.6102 -0.882411 89.5263
lradius 11.3692
lwrist -61.5897
lhand -17.6907 -0.808653
lfingers 7.12502
lthumb 8.5688 28.9975
rfemur 159.673 52.0952 50.2888
rtibia 210.577
rfoot 79.9583 96.3139
rtoes -0.762322
lfemur 167.984 115.522 -87.2703
ltibia 148.292
lfoot 68.8213 -78.886
ltoes 17.1288
82
root -3.51997 6.78248 -1.16867 380.836 -87.8799 -414.793
lowerback 54.8222 -3.74717 4.51212
upperback 5.12746 -4.01427 -2.6694
thorax -15.9487 -2.51342 -2.87865
lowerneck 8.23185 2.09634 -1.26387
upperneck -3.08819 2.61031 -0.752998
head -2.40619 1.33564 -0.141738
rclavicle -1.98785e-016 -7.95139e-016
rhumerus 84.5377 -20.1137 -192.975
rradius 7.3487
rwrist 156.289
rhand -25.0671 12.9692
rfingers 7.12502
rthumb 1.44673 -17.0057
lclavicle -1.98785e-016 -7.95139e-016
lhumerus 61.4215 -1.16265 88.8226
lradius 11.53
lwrist -60.6645
lhand -17.8373 -0.794524
lfingers 7.12502
lthumb 8.42735 29.0173
rfemur 159.386 51.45 47.2738
rtibia 209.413
rfoot 90.5479 95.6623
rtoes -1.22565
lfemur 9.92354 245.031 -262.816
ltibia 210.695
lfoot 75.2231 -100.973
ltoes 17.0854
83
root -3.52337 6.64757 -1.16843 380.584 -87.853 -414.618
lowerback 54.8941 -3.79231 4.57052
upperback 5.19098 -4.04546 -2.68225
thorax -15.883 -2.5322 -2.90294
lowerneck 8.20438 2.0651 -1.11574
upperneck -3.15324 2.57469 -0.937809
head -2.41798 1.32244 -0.224696
rclavicle -5.46658e-015 -1.55052e-014
rhumerus 84.5277 -20.1392 -192.748
rradius 7.3029
rwrist 156.105
rhand -25.1243 13.0133
rfingers 7.12502
rthumb 1.39155 -16.9619
lclavicle -5.46658e-015 -1.55052e-014
lhumerus 61.2199 -1.39369 88.2733
lradius 11.6397
lwrist -59.77
lhand -18.0084 -0.890474
lfingers 7.12502
lthumb 8.26221 28.928
rfemur 159.322 50.8223 44.5695
rtibia 208.316
rfoot 102.615 95.4199
rtoes -1.65143
lfemur 8.0675 245.492 -258.675
ltibia 209.734
lfoot 81.2536 -101.033
ltoes 17.0331
84
root -3.52693 6.52007 -1.1691 380.114 -87.8286 -414.194
lowerback 54.9046 -3.81892 4.60437
upperback 5.28342 -4.07002 -2.68188
thorax -15.7739 -2.54739 -2.90623
lowerneck 8.10602 2.02982 -0.949145
upperneck -3.18901 2.53579 -1.14265
head -2.40657 1.30768 -0.315907
rclavicle 4.47266e-015 -1.74931e-014
rhumerus 84.5158 -20.0512 -192.514
rradius 7.25497
rwrist 155.952
rhand -24.9775 13.0395
rfingers 7.12502
rthumb 1.5333 -16.9348
lclavicle 4.47266e-015 -1.74931e-014
lhumerus 61.1081 -1.59554 87.7911
lradius 11.6373
lwrist -58.9669
lhand -18.2041 -0.953634
lfingers 7.12502
lthumb 8.07333 28.8722
rfemur 159.492 50.2937 42.1514
rtibia 207.26
rfoot 114.601 95.4166
rtoes -2.13598
lfemur 6.41455 245.899 -254.814
ltibia 208.818
lfoot 86.8459 -101.192
ltoes 16.8698
85
root -3.53231 6.44967 -1.1721 379.784 -87.8077 -413.864
lowerback 54.8873 -3.84372 4.64223
upperback 5.34315 -4.08409 -2.67616
thorax -15.7007 -2.55669 -2.9109
lowerneck 7.9731 1.99798 -0.791763
upperneck -3.16855 2.50148 -1.33975
head -2.3705 1.29442 -0.40222
rclavicle 1.03368e-014 -1.59028e-015
rhumerus 84.4814 -19.9485 -192.277
rradius 7.27839
rwrist 155.855
rhand -24.698 13.0729
rfingers 7.12502
rthumb 1.80322 -16.8993
lclavicle 1.03368e-014 -1.59028e-015
lhumerus 60.972 -1.75069 87.4292
lradius 11.5681
lwrist -58.2808
lhand -18.3645 -1.0957
lfingers 7.12502
lthumb 7.91857 28.736
rfemur 158.813 49.4627 39.6688
rtibia 206.629
rfoot 128.184 95.3089
rtoes -2.4608
lfemur 3.35198 246.083 -250.289
ltibia 208.324
lfoot 92.4394 -100.923
ltoes 16.7562
86
root -3.53603 6.34421 -1.17271 378.883 -87.7845 -412.949
lowerback 54.8579 -3.88109 4.67689
upperback 5.40245 -4.11895 -2.6911
thorax -15.6305 -2.57395 -2.92735
lowerneck 7.794 1.97686 -0.612096
upperneck -3.11112 2.48672 -1.49786
head -2.314 1.2889 -0.479678
rclavicle 8.84592e-015 7.95139e-016
rhumerus 84.4355 -19.7449 -192.08
rradius 7.34131
rwrist 155.76
rhand -24.3031 13.1256
rfingers 7.12502
rthumb 2.18467 -16.843
lclavicle 8.84592e-015 7.95139e-016
lhumerus 60.8252 -1.85324 87.1051
lradius 11.4857
lwrist -57.8212
lhand -18.5008 -1.28463
lfingers 7.12502
lthumb 7.78703 28.552
rfemur 159.173 49.0154 37.7168
rtibia 205.756
rfoot 137.132 95.8789
rtoes -2.87572
lfemur 2.04828 246.384 -247.134
ltibia 207.566
lfoot 96.8715 -101.188
ltoes 16.6382
87
root -3.53943 6.2511 -1.17335 378.775 -87.7611 -412.779
lowerback 54.7624 -3.90868 4.7175
upperback 5.46664 -4.1357 -2.68824
thorax -15.5449 -2.58334 -2.93711
lowerneck 7.73962 1.96092 -0.508349
upperneck -3.1364 2.4704 -1.61415
head -2.30982 1.28311 -0.533325
rclavicle 2.62396e-014 4.37326e-015
rhumerus 84.3848 -19.5083 -191.871
rradius 7.41908
rwrist 155.664
rhand -23.9367 13.1771
rfingers 7.12502
rthumb 2.53852 -16.7876
lclavicle 2.62396e-014 4.37326e-015
lhumerus 60.6447 -1.85569 86.9946
lradius 11.4389
lwrist -57.7297
lhand -18.6231 -1.45893
lfingers 7.12502
lthumb 7.66893 28.382
rfemur 159.527 48.7069 36.0579
rtibia 204.988
rfoot 142.063 96.5759
rtoes -3.06342
lfemur 0.83331 246.673 -244.228
ltibia 206.898
lfoot 100.738 -101.51
ltoes 16.4611
88
root -3.54175 6.17064 -1.17416 378.402 -87.7454 -412.343
lowerback 54.6551 -3.925 4.73202
upperback 5.52881 -4.15123 -2.66982
thorax -15.4585 -2.59114 -2.9183
lowerneck 7.83433 1.97081 -0.503882
upperneck -3.23126 2.47885 -1.66719
head -2.35826 1.28986 -0.553815
rclavicle -4.36332e-014 -8.34896e-015
rhumerus 84.3009 -19.3006 -191.633
rradius 7.49646
rwrist 155.539
rhand -23.7024 13.1918
rfingers 7.12502
rthumb 2.76481 -16.77
lclavicle -4.36332e-014 -8.34896e-015
lhumerus 60.4172 -1.74754 87.0642
lradius 11.3911
lwrist -57.9987
lhand -18.7861 -1.60851
lfingers 7.12502
lthumb 7.51163 28.2381
rfemur 159.913 48.4561 34.6092
rtibia 204.329
rfoot 145.619 97.3385
rtoes -3.28703
lfemur -0.166939 246.937 -241.743
ltibia 206.311
lfoot 103.75 -101.81
ltoes 16.2418
